{
	"asset":{
		"generator":"Khronos glTF Blender I/O v3.6.27",
		"version":"2.0"
	},
	"extensionsUsed":[
		"KHR_materials_transmission",
		"KHR_materials_specular",
		"KHR_materials_ior"
	],
	"scene":0,
	"scenes":[
		{
			"name":"Scene",
			"nodes":[
				0
			]
		}
	],
	"nodes":[
		{
			"mesh":0,
			"name":"\u7acb\u65b9\u4f53.047"
		}
	],
	"materials":[
		{
			"doubleSided":true,
			"extensions":{
				"KHR_materials_transmission":{
					"transmissionFactor":0.8599033355712891
				},
				"KHR_materials_specular":{
					"specularColorFactor":[
						1.1921226275221541,
						1.1921226275221541,
						1.1921226275221541
					]
				},
				"KHR_materials_ior":{
					"ior":1.4500000476837158
				}
			},
			"name":"\u30de\u30c6\u30ea\u30a2\u30eb.450",
			"pbrMetallicRoughness":{
				"baseColorFactor":[
					1,
					1,
					1,
					0.6666666865348816
				],
				"baseColorTexture":{
					"index":0
				},
				"metallicFactor":0.22705316543579102,
				"roughnessFactor":0.05314009636640549
			}
		}
	],
	"meshes":[
		{
			"name":"\u7acb\u65b9\u4f53.030",
			"primitives":[
				{
					"attributes":{
						"POSITION":0,
						"NORMAL":1,
						"TEXCOORD_0":2,
						"TEXCOORD_1":3
					},
					"indices":4,
					"material":0
				}
			]
		}
	],
	"textures":[
		{
			"sampler":0,
			"source":0
		}
	],
	"images":[
		{
			"mimeType":"image/jpeg",
			"name":"P6P-Tex",
			"uri":"P6P-Tex.jpg"
		}
	],
	"accessors":[
		{
			"bufferView":0,
			"componentType":5126,
			"count":21638,
			"max":[
				3.8263070583343506,
				0.9487009644508362,
				2.020954132080078
			],
			"min":[
				-4.504283428192139,
				-0.013837536796927452,
				-1.4411860704421997
			],
			"type":"VEC3"
		},
		{
			"bufferView":1,
			"componentType":5126,
			"count":21638,
			"type":"VEC3"
		},
		{
			"bufferView":2,
			"componentType":5126,
			"count":21638,
			"type":"VEC2"
		},
		{
			"bufferView":3,
			"componentType":5126,
			"count":21638,
			"type":"VEC2"
		},
		{
			"bufferView":4,
			"componentType":5123,
			"count":79602,
			"type":"SCALAR"
		}
	],
	"bufferViews":[
		{
			"buffer":0,
			"byteLength":259656,
			"byteOffset":0,
			"target":34962
		},
		{
			"buffer":0,
			"byteLength":259656,
			"byteOffset":259656,
			"target":34962
		},
		{
			"buffer":0,
			"byteLength":173104,
			"byteOffset":519312,
			"target":34962
		},
		{
			"buffer":0,
			"byteLength":173104,
			"byteOffset":692416,
			"target":34962
		},
		{
			"buffer":0,
			"byteLength":159204,
			"byteOffset":865520,
			"target":34963
		}
	],
	"samplers":[
		{
			"magFilter":9729,
			"minFilter":9987
		}
	],
	"buffers":[
		{
			"byteLength":1024724,
			"uri":"PixelCamera.bin"
		}
	]
}
